<?xml version="1.0" encoding="UTF-8" standalone="no"?>
<!-- Created with Inkscape (http://www.inkscape.org/) -->

<svg
   xmlns:dc="http://purl.org/dc/elements/1.1/"
   xmlns:cc="http://creativecommons.org/ns#"
   xmlns:rdf="http://www.w3.org/1999/02/22-rdf-syntax-ns#"
   xmlns:svg="http://www.w3.org/2000/svg"
   xmlns="http://www.w3.org/2000/svg"
   xmlns:sodipodi="http://sodipodi.sourceforge.net/DTD/sodipodi-0.dtd"
   xmlns:inkscape="http://www.inkscape.org/namespaces/inkscape"
   width="500.00009"
   height="500.00021"
   id="svg2243"
   sodipodi:version="0.32"
   inkscape:version="0.92.5 (2060ec1f9f, 2020-04-08)"
   version="1.0"
   sodipodi:docname="Fragezeichen.svg">
  <defs
     id="defs2245" />
  <sodipodi:namedview
     id="base"
     pagecolor="#ffffff"
     bordercolor="#666666"
     borderopacity="1.0"
     gridtolerance="10000"
     guidetolerance="10"
     objecttolerance="10"
     inkscape:pageopacity="0.0"
     inkscape:pageshadow="2"
     inkscape:zoom="1.5860057"
     inkscape:cx="267.33964"
     inkscape:cy="249.99901"
     inkscape:document-units="px"
     inkscape:current-layer="layer1"
     showguides="true"
     inkscape:guide-bbox="true"
     inkscape:window-width="1920"
     inkscape:window-height="1046"
     inkscape:window-x="-11"
     inkscape:window-y="-11"
     showgrid="false"
     inkscape:window-maximized="1" />
  <metadata
     id="metadata2248">
    <rdf:RDF>
      <cc:Work
         rdf:about="">
        <dc:format>image/svg+xml</dc:format>
        <dc:type
           rdf:resource="http://purl.org/dc/dcmitype/StillImage" />
        <dc:title></dc:title>
      </cc:Work>
    </rdf:RDF>
  </metadata>
  <g
     inkscape:label="Layer 1"
     inkscape:groupmode="layer"
     id="layer1"
     transform="translate(144.286, 446.21)">
    <path
       sodipodi:type="arc"
       style="fill:#ffffff;fill-opacity:1;fill-rule:nonzero;stroke:none"
       id="path8679"
       sodipodi:cx="249.71306"
       sodipodi:cy="244.34138"
       sodipodi:rx="140.71133"
       sodipodi:ry="122.87468"
       d="m 390.42439,244.34138 a 140.71133,122.87468 0 1 1 -281.42267,0 140.71133,122.87468 0 1 1 281.42267,0 z"
       transform="matrix(1.7434222,0,0,1.9963677,-329.64167,-684.00354)" />
    <path
       inkscape:connector-curvature="0"
       style="fill:#ff0000;fill-opacity:1;fill-rule:nonzero;stroke:none"
       d="m 105.71448,-446.2079 c -138.002969,0 -250.00079,112.01776 -250.00079,250.01483 0,137.997039 111.997831,249.983393 250.00079,249.983383 138.00297,0 250.00078,-111.986344 250.00079,-249.983383 0,-137.99706 -111.99782,-250.01483 -250.00079,-250.01483 z m 0,48.89682 c 111.02489,0 201.132,90.10085 201.132,201.11801 -10e-6,111.01716 -90.1071,201.1179942 -201.132,201.1179942 C -5.3104225,4.9249141 -95.417518,-85.17592 -95.417518,-196.19307 c 0,-111.01716 90.1071055,-201.11801 201.131998,-201.11801 z"
       id="path3063" />
    <rect
       style="fill:#ff0000;fill-opacity:1;fill-rule:nonzero;stroke:none;opacity:1"
       id="rect3274"
       width="467.75906"
       height="49.13345"
       x="-20.385244"
       y="-88.563324"
       ry="0"
       transform="matrix(0.70713139,-0.70708217,0.70713139,0.70708217,0,0)" />
    <text
       xml:space="preserve"
       style="font-style:normal;font-weight:normal;font-size:533.5133667px;line-height:1.25;font-family:sans-serif;letter-spacing:0px;word-spacing:0px;fill:#000000;fill-opacity:1;stroke:none;stroke-width:1"
       x="-36.390766"
       y="1.7746824"
       id="text850"><tspan
         sodipodi:role="line"
         id="tspan848"
         x="-36.390766"
         y="1.7746824"
         style="stroke-width:1">?</tspan></text>
  </g>
</svg>
